<?xml version="1.0" standalone="no"?>
<!DOCTYPE svg PUBLIC "-//W3C//DTD SVG 20010904//EN"
 "http://www.w3.org/TR/2001/REC-SVG-20010904/DTD/svg10.dtd">
<svg version="1.0" xmlns="http://www.w3.org/2000/svg"
 width="1280.000000pt" height="1278.000000pt" viewBox="0 0 1280.000000 1278.000000"
 preserveAspectRatio="xMidYMid meet">
<metadata>
Created by potrace 1.15, written by Peter Selinger 2001-2017
</metadata>
<g transform="translate(0.000000,1278.000000) scale(0.100000,-0.100000)"
fill="#e91e63" stroke="none">
<path d="M6372 12748 c-6 -18 -21 -71 -33 -118 -51 -196 -138 -314 -451 -606
-312 -292 -498 -490 -587 -624 -65 -98 -123 -212 -154 -303 -6 -15 -18 -9 -84
41 -222 168 -396 234 -973 367 -338 78 -510 133 -618 197 -31 18 -104 79 -163
136 -58 56 -109 102 -112 102 -13 0 -7 -41 22 -144 16 -58 33 -136 36 -174 12
-121 -21 -295 -111 -592 -174 -567 -211 -749 -200 -985 4 -77 9 -159 12 -181
l6 -41 -59 9 c-101 17 -435 4 -538 -20 -212 -50 -321 -80 -697 -197 -207 -64
-287 -79 -433 -79 -108 -1 -154 3 -200 17 -142 43 -158 47 -171 47 -29 0 -11
-28 67 -105 108 -106 171 -198 213 -309 36 -94 82 -248 109 -371 150 -665 222
-864 398 -1097 l58 -77 -37 -12 c-64 -20 -264 -126 -332 -175 -114 -83 -297
-254 -448 -419 -213 -231 -397 -413 -475 -468 -90 -64 -191 -110 -303 -137
-49 -12 -96 -25 -103 -30 -29 -17 0 -36 90 -59 51 -12 116 -31 145 -42 128
-48 287 -178 493 -403 195 -214 454 -470 545 -540 100 -77 223 -149 328 -192
l88 -37 -31 -38 c-50 -63 -94 -130 -137 -209 -98 -181 -140 -319 -292 -965
-80 -338 -141 -463 -304 -625 -77 -75 -101 -110 -78 -110 4 0 57 15 117 33
103 30 119 32 260 31 169 0 205 -8 540 -111 210 -64 386 -113 505 -141 47 -11
110 -26 140 -34 60 -14 449 -19 509 -6 l33 8 -6 -38 c-4 -20 -9 -116 -12 -212
-6 -184 3 -257 55 -475 29 -120 42 -169 111 -395 130 -432 144 -498 137 -669
-2 -73 -11 -145 -20 -171 -66 -198 -59 -206 71 -79 53 52 111 104 128 116 105
72 304 143 589 208 641 147 835 219 1062 397 68 52 73 55 73 34 0 -27 112
-241 173 -329 64 -94 275 -313 648 -672 248 -239 320 -341 368 -520 12 -44 26
-97 32 -118 12 -46 40 -47 50 -2 45 195 97 312 186 421 31 37 122 131 202 208
362 351 538 527 598 601 61 75 161 232 182 286 5 13 21 50 35 82 l27 59 42
-35 c71 -58 213 -147 300 -186 123 -57 323 -119 582 -180 50 -12 167 -39 260
-62 381 -90 501 -146 665 -313 80 -81 110 -102 110 -74 0 7 -15 62 -32 123
-30 101 -33 121 -32 245 1 167 3 175 161 705 140 466 173 693 138 940 -8 54
-13 100 -12 101 1 1 29 -2 62 -8 89 -14 415 -4 505 16 96 22 186 44 230 56 78
22 218 63 260 75 455 137 535 155 682 155 87 0 123 -6 228 -35 82 -23 128 -31
134 -25 7 7 -21 42 -81 103 -49 50 -105 114 -123 140 -77 115 -131 270 -201
577 -135 594 -209 802 -363 1018 -36 51 -66 95 -66 98 0 2 5 4 11 4 6 0 61 24
123 54 196 93 307 178 542 412 90 91 221 228 291 305 130 144 264 266 365 332
69 46 143 76 271 107 136 34 132 47 -24 89 -66 17 -144 43 -172 58 -136 68
-163 93 -702 643 -285 291 -434 402 -652 486 l-72 27 28 32 c50 57 143 206
187 299 65 140 104 262 178 571 26 105 63 258 82 340 77 317 132 432 283 588
72 74 101 111 94 118 -7 7 -44 0 -119 -23 -102 -31 -118 -33 -249 -32 -164 0
-210 10 -602 128 -253 77 -375 110 -543 149 -84 19 -123 22 -338 22 l-244 0 6
35 c4 19 9 98 12 175 10 236 -23 402 -201 990 -74 246 -90 310 -106 431 -14
109 -7 189 31 326 30 106 36 148 24 148 -4 0 -57 -48 -118 -108 -162 -157
-267 -206 -626 -292 -621 -149 -747 -187 -916 -274 -60 -30 -149 -85 -197
-122 -49 -36 -90 -65 -92 -63 -1 2 -15 33 -30 69 -38 92 -99 202 -163 295 -54
78 -351 383 -658 675 -233 223 -309 338 -362 545 -31 120 -51 144 -70 83z
m405 -2739 c639 -52 1257 -276 1777 -643 306 -215 648 -546 878 -851 230 -304
414 -661 526 -1021 54 -172 105 -390 121 -521 6 -46 16 -120 23 -165 15 -109
15 -726 0 -833 -6 -44 -16 -118 -22 -165 -44 -340 -193 -788 -372 -1115 -184
-336 -375 -583 -689 -890 -282 -276 -537 -463 -860 -634 -415 -218 -909 -362
-1384 -401 -155 -13 -625 -13 -780 0 -724 60 -1399 331 -1979 794 -228 181
-588 567 -758 811 -229 329 -425 766 -509 1133 -58 257 -77 392 -91 660 -12
231 -2 577 23 742 33 222 71 393 129 580 59 188 109 309 204 500 183 364 366
612 695 940 207 207 323 307 507 437 507 358 1143 590 1759 642 148 12 654 13
802 0z"/>
</g>
</svg>
