<svg xmlns="http://www.w3.org/2000/svg" xmlns:xlink="http://www.w3.org/1999/xlink" version="1.1" x="0px" y="0px" viewBox="0 0 100 125" enable-background="new 0 0 100 100" xml:space="preserve"><g><g><g><path fill="#000000" d="M81.719,69.706c0.632,1.446,0.985,3.063,0.985,4.768c0,1.701-0.353,3.314-0.985,4.761     c-0.629,1.45-1.534,2.726-2.631,3.779c-2.188,2.111-5.142,3.361-8.282,3.365c-0.872,0-1.755-0.098-2.635-0.302     c-0.879-0.204-1.755-0.512-2.606-0.927l-5.386-2.646c-1.352-0.665-1.908-2.297-1.243-3.649c0.661-1.352,2.297-1.908,3.645-1.246     l5.386,2.646c0.952,0.469,1.904,0.669,2.838,0.672c1.254,0,2.486-0.382,3.529-1.061c1.043-0.683,1.886-1.653,2.388-2.809     c0.338-0.774,0.531-1.632,0.531-2.584c-0.004-1.432-0.429-2.656-1.141-3.681c-0.712-1.021-1.726-1.824-2.878-2.297     c-0.767-0.316-1.592-0.483-2.428-0.483c-0.934,0-1.882,0.204-2.838,0.672l-5.386,2.646L51.201,76.92l-11.382,5.585l-5.386,2.646     c-1.701,0.836-3.496,1.228-5.237,1.228c-2.355-0.004-4.608-0.709-6.509-1.948c-1.901-1.239-3.463-3.023-4.408-5.193     c-0.632-1.446-0.985-3.063-0.985-4.764c0-1.704,0.353-3.321,0.981-4.768c0.632-1.446,1.537-2.726,2.631-3.779     c2.191-2.111,5.146-3.361,8.289-3.365c1.744,0,3.54,0.396,5.237,1.228l5.386,2.646l0.004,0.004     c1.348,0.661,1.908,2.297,1.243,3.645c-0.665,1.352-2.297,1.908-3.649,1.246l-5.386-2.646c-0.952-0.469-1.904-0.672-2.835-0.672     c-1.257,0-2.489,0.382-3.532,1.061c-1.043,0.683-1.886,1.653-2.391,2.813c-0.334,0.774-0.527,1.632-0.527,2.587     c0.004,1.428,0.429,2.649,1.141,3.674c0.712,1.021,1.726,1.824,2.878,2.297c0.767,0.313,1.592,0.483,2.431,0.483     c0.93-0.004,1.882-0.204,2.838-0.672l5.382-2.646l11.382-5.585l11.382-5.589l5.386-2.646c1.697-0.832,3.496-1.228,5.24-1.228     c2.355,0,4.608,0.709,6.509,1.948C79.212,65.752,80.775,67.533,81.719,69.706z"/><path fill="#000000" d="M70.956,23.227c1.926,3.696,3.016,7.948,3.016,12.457c0,4.506-1.09,8.758-3.016,12.454     c-0.963,1.85-2.137,3.558-3.485,5.091c-1.348,1.534-2.875,2.893-4.55,4.037c-3.71,2.547-8.166,4.037-12.923,4.037     c-4.761,0-9.212-1.49-12.923-4.037c-3.347-2.293-6.109-5.436-8.035-9.129c-1.926-3.696-3.016-7.948-3.016-12.454     s1.09-8.762,3.016-12.454c1.926-3.696,4.688-6.839,8.035-9.132c1.243-0.85,2.94-0.534,3.79,0.709     c0.85,1.239,0.534,2.936-0.709,3.787c-2.584,1.77-4.757,4.23-6.28,7.155c-1.526,2.925-2.402,6.309-2.402,9.935     c0,3.623,0.876,7.006,2.402,9.932c1.523,2.925,3.696,5.386,6.28,7.155c2.133,1.461,4.535,2.453,7.115,2.864v-7.144     c0-1.508,1.221-2.726,2.726-2.726c1.508,0,2.726,1.217,2.726,2.726v7.144c0.843-0.134,1.672-0.334,2.475-0.589     c1.65-0.523,3.205-1.294,4.641-2.275c2.584-1.766,4.757-4.226,6.28-7.152c1.526-2.925,2.402-6.312,2.402-9.935     c0-3.627-0.876-7.01-2.402-9.935c-1.523-2.925-3.696-5.386-6.28-7.155c-1.243-0.85-1.559-2.547-0.709-3.787     c0.85-1.243,2.547-1.559,3.79-0.709C66.268,16.391,69.03,19.535,70.956,23.227z"/><path fill="#000000" d="M60.719,31.774c0.004,2.209-0.676,4.288-1.832,5.992c-1.156,1.712-2.787,3.067-4.713,3.881     c-1.286,0.545-2.7,0.847-4.175,0.847c-2.209,0-4.288-0.68-5.996-1.835c-1.708-1.156-3.063-2.787-3.881-4.713     c-0.541-1.283-0.843-2.7-0.843-4.172c0-2.213,0.68-4.288,1.835-5.996c1.152-1.712,2.784-3.067,4.713-3.881     c1.283-0.545,2.7-0.847,4.172-0.843c2.213-0.004,4.288,0.676,5.996,1.832c1.712,1.156,3.067,2.787,3.881,4.713     C60.421,28.882,60.719,30.299,60.719,31.774z M55.268,31.774c0-1.101-0.327-2.1-0.898-2.947     c-0.567-0.839-1.377-1.512-2.322-1.911c-0.629-0.265-1.312-0.411-2.05-0.411c-1.101,0-2.1,0.327-2.944,0.898     c-0.843,0.567-1.515,1.377-1.911,2.319c-0.265,0.632-0.414,1.316-0.414,2.053c0.004,1.097,0.331,2.097,0.898,2.944     c0.571,0.843,1.381,1.512,2.322,1.911c0.629,0.265,1.316,0.411,2.05,0.414c1.101-0.004,2.1-0.331,2.944-0.901     c0.843-0.567,1.515-1.377,1.915-2.319C55.122,33.195,55.268,32.508,55.268,31.774z"/></g></g></g></svg>
